<?xml version="1.0" encoding="utf-8"?>
<svg viewBox="0 0 900 450" xmlns="http://www.w3.org/2000/svg">
  <rect x="0" y="0" width="900" height="450" fill="#001220" transform="matrix(1, 0, 0, 1, -7.105427357601002e-15, -7.105427357601002e-15)"/>
  <path d="M 0 215.589 L 21.5 222.678 C 43 229.901 86 244.079 128.8 248.091 C 171.7 252.104 214.3 245.952 257.2 236.722 C 300 227.627 343 215.589 385.8 220.27 C 428.7 224.951 471.3 246.353 514.2 249.696 C 557 253.041 600 238.327 642.8 238.595 C 685.7 238.728 728.3 253.976 771.2 251.971 C 814 249.965 857 230.704 878.5 221.207 L 900 211.576 L 900 451 L 878.5 451 C 857 451 814 451 771.2 451 C 728.3 451 685.7 451 642.8 451 C 600 451 557 451 514.2 451 C 471.3 451 428.7 451 385.8 451 C 343 451 300 451 257.2 451 C 214.3 451 171.7 451 128.8 451 C 86 451 43 451 21.5 451 L 0 451 L 0 215.589 Z" fill="#fa7268" style="" transform="matrix(1, 0, 0, 1, -7.105427357601002e-15, -7.105427357601002e-15)"/>
  <path d="M 0 291.328 L 21.5 296.092 C 43 300.728 86 310.257 128.8 309.613 C 171.7 308.969 214.3 298.153 257.2 290.04 C 300 281.928 343 276.262 385.8 282.314 C 428.7 288.366 471.3 305.879 514.2 302.531 C 557 299.054 600 274.588 642.8 271.111 C 685.7 267.763 728.3 285.276 771.2 293.002 C 814 300.728 857 298.668 878.5 297.509 L 900 296.479 L 900 451 L 878.5 451 C 857 451 814 451 771.2 451 C 728.3 451 685.7 451 642.8 451 C 600 451 557 451 514.2 451 C 471.3 451 428.7 451 385.8 451 C 343 451 300 451 257.2 451 C 214.3 451 171.7 451 128.8 451 C 86 451 43 451 21.5 451 L 0 451 L 0 291.328 Z" fill="#ef5f67" style="" transform="matrix(1, 0, 0, 1, -7.105427357601002e-15, -7.105427357601002e-15)"/>
  <path d="M 0 322.594 L 21.5 327.442 C 43 332.159 86 341.855 128.8 347.882 C 171.7 354.041 214.3 356.661 257.2 349.454 C 300 342.248 343 325.214 385.8 320.366 C 428.7 315.65 471.3 322.987 514.2 320.366 C 557 317.747 600 305.167 642.8 309.491 C 685.7 313.816 728.3 335.304 771.2 334.78 C 814 334.387 857 312.112 878.5 300.974 L 900 289.838 L 900 451 L 878.5 451 C 857 451 814 451 771.2 451 C 728.3 451 685.7 451 642.8 451 C 600 451 557 451 514.2 451 C 471.3 451 428.7 451 385.8 451 C 343 451 300 451 257.2 451 C 214.3 451 171.7 451 128.8 451 C 86 451 43 451 21.5 451 L 0 451 L 0 322.594 Z" fill="#e34c67" style="" transform="matrix(1, 0, 0, 1, -7.105427357601002e-15, -7.105427357601002e-15)"/>
  <path d="M 0 353.979 L 21.5 356.803 C 43 359.751 86 365.4 128.8 367.12 C 171.7 368.716 214.3 366.26 257.2 369.085 C 300 372.032 343 380.138 385.8 383.454 C 428.7 386.77 471.3 385.05 514.2 385.664 C 557 386.278 600 389.226 642.8 390.577 C 685.7 392.05 728.3 392.05 771.2 391.068 C 814 389.963 857 387.998 878.5 386.892 L 900 385.91 L 900 451 L 878.5 451 C 857 451 814 451 771.2 451 C 728.3 451 685.7 451 642.8 451 C 600 451 557 451 514.2 451 C 471.3 451 428.7 451 385.8 451 C 343 451 300 451 257.2 451 C 214.3 451 171.7 451 128.8 451 C 86 451 43 451 21.5 451 L 0 451 L 0 353.979 Z" fill="#d53867" style="" transform="matrix(1, 0, 0, 1, -7.105427357601002e-15, -7.105427357601002e-15)"/>
  <path d="M 0 394.963 L 21.5 392.695 C 43 390.56 86 386.024 128.8 388.292 C 171.7 390.56 214.3 399.366 257.2 398.298 C 300 397.231 343 386.024 385.8 381.621 C 428.7 377.218 471.3 379.353 514.2 381.621 C 557 383.889 600 386.024 642.8 386.557 C 685.7 386.958 728.3 385.623 771.2 386.557 C 814 387.358 857 390.56 878.5 392.028 L 900 393.629 L 900 451 L 878.5 451 C 857 451 814 451 771.2 451 C 728.3 451 685.7 451 642.8 451 C 600 451 557 451 514.2 451 C 471.3 451 428.7 451 385.8 451 C 343 451 300 451 257.2 451 C 214.3 451 171.7 451 128.8 451 C 86 451 43 451 21.5 451 L 0 451 L 0 394.963 Z" fill="#c62368" style="" transform="matrix(1, 0, 0, 1, -7.105427357601002e-15, -7.105427357601002e-15)"/>
  <text style="fill: rgb(255, 255, 255); font-family: Arial, sans-serif; font-size: 79px; font-weight: 700; text-transform: uppercase;" x="103.257" y="252.387" transform="matrix(1, 0, 0, 1, -7.105427357601002e-15, -7.105427357601002e-15)">NICOLAS HITOSIS</text>
</svg>